<?xml version="1.0" encoding="utf-8"?>
<!-- Generator: Adobe Illustrator 24.3.0, SVG Export Plug-In . SVG Version: 6.00 Build 0)  -->
<svg version="1.1" id="Capa_1" xmlns="http://www.w3.org/2000/svg" xmlns:xlink="http://www.w3.org/1999/xlink" x="0px" y="0px"
	 viewBox="0 0 512 512" style="enable-background:new 0 0 512 512;" xml:space="preserve">
<style type="text/css">
	.st0{fill:#60A5FA;}
</style>
<g id="Layer_2_00000039817479287426663580000002022239267393654928_">
	<g id="Surfaces_00000013180303803292169050000003155769525423463324_">
		<g id="Photo_Surface_2_">
			<g id="Outline_no_shadow_00000073715384240732440140000014327426812104272037_">
				<path class="st0" d="M224.9,191.9c3.5,5.5,5.3,12,5.1,18.9c0,9.4-2.1,16.6-6.6,22c-9.9,11.8-27.4,15.1-42,15.1H170
					c-2.6,0-5.3-0.2-8.3-0.4v-71.7c1.5-0.2,4.5-0.4,8.7-0.2c4.1-0.2,9-0.2,14.5-0.2C199.7,175.4,216.4,178.6,224.9,191.9z"/>
				<path class="st0" d="M421.3,6.4H90.7C40.5,6.4,0,46.9,0,97.1v317.9c0,50.1,40.5,90.7,90.7,90.7h330.7
					c50.1,0,90.7-40.5,90.7-90.7V97.1C512,46.9,471.5,6.4,421.3,6.4z M263.7,254.9c-8.5,11.9-20.5,20.9-34.4,26
					c-14.5,5.3-30.5,7.2-48,7.2c-5.1,0-8.5,0-10.7-0.2c-2.1-0.2-5.1-0.2-9.2-0.2v68.5c0.2,1.5-0.9,2.8-2.3,3h-41.4
					c-1.7,0-2.6-0.9-2.6-2.8V137c0-1.5,0.6-2.4,2.1-2.4c3.6,0,7,0,12-0.2c5.1-0.2,10.4-0.2,16.2-0.4c5.8-0.2,11.9-0.2,18.6-0.4
					c6.6-0.2,13-0.2,19.4-0.2c17.5,0,32,2.1,43.9,6.6c10.7,3.6,20.5,9.6,28.6,17.5c6.8,6.8,12.2,15.1,15.6,24.3
					c3.2,9,4.9,18.1,4.9,27.7C276.5,227.8,272.2,243,263.7,254.9z M414.9,337.9c-6,8.5-14.3,15.1-23.9,19
					c-10.5,4.5-23.2,6.8-38.6,6.8c-9.8,0-19.4-0.9-29-2.8c-7.5-1.3-14.9-3.6-21.8-6.8c-1.5-0.9-2.6-2.3-2.3-4V313
					c0-0.6,0.2-1.5,0.9-1.9c0.6-0.4,1.3-0.2,1.9,0.2c8.3,4.9,17.1,8.3,26.5,10.5c8.1,2.1,16.6,3.2,25.2,3.2c8.1,0,13.9-1.1,17.7-3
					c3.4-1.5,5.8-5.1,5.8-9c0-3-1.7-5.8-5.1-8.5c-3.4-2.8-10.5-6-20.9-10c-10.9-3.8-20.9-9-30.3-15.4c-6.6-4.7-12.2-10.9-16.2-18.1
					c-3.4-6.8-5.1-14.3-4.9-21.8c0-9.2,2.6-17.9,7.3-25.8c5.3-8.5,13.2-15.4,22.4-19.6c10-5.1,22.6-7.5,37.8-7.5
					c8.7,0,17.7,0.6,26.5,1.9c6.4,0.9,12.6,2.6,18.4,4.9c0.9,0.2,1.7,1.1,2.1,1.9c0.2,0.9,0.4,1.7,0.4,2.6v34.8
					c0,0.9-0.4,1.7-1.1,2.1c-1.9,0.4-3,0.4-3.8,0c-6.4-3.4-13.2-5.8-20.5-7.2c-7.9-1.7-15.8-2.8-23.9-2.8c-4.3-0.2-8.8,0.4-12.8,1.5
					c-2.8,0.6-5.1,2.1-6.6,4.3c-1.1,1.7-1.7,3.8-1.7,5.8s0.9,3.8,2.1,5.5c1.9,2.4,4.5,4.3,7.2,5.8c4.9,2.6,10,4.9,15.1,7
					c11.5,3.8,22.6,9.2,32.9,15.6c7,4.5,12.8,10.5,16.9,17.7c3.4,6.8,5.1,14.3,4.9,22C423.5,319.6,420.5,329.6,414.9,337.9z"/>
			</g>
		</g>
	</g>
</g>
</svg>
