<?xml version="1.0" encoding="utf-8"?>
<!-- Generator: Adobe Illustrator 24.3.0, SVG Export Plug-In . SVG Version: 6.00 Build 0)  -->
<svg version="1.1" id="Capa_1" xmlns="http://www.w3.org/2000/svg" xmlns:xlink="http://www.w3.org/1999/xlink" x="0px" y="0px"
	 viewBox="0 0 512 512" style="enable-background:new 0 0 512 512;" xml:space="preserve">
<style type="text/css">
	.st0{fill:#60A5FA;}
</style>
<path d="M496,80H272c-8.8,0-16,7.2-16,16v320c0,8.8,7.2,16,16,16h224c8.8,0,16-7.2,16-16V96C512,87.2,504.8,80,496,80z"/>
<g>
	<path class="st0" d="M432,368H272c-8.8,0-16-7.2-16-16s7.2-16,16-16h160c8.8,0,16,7.2,16,16S440.8,368,432,368z"/>
	<path class="st0" d="M352,144c-44.2,0-80,35.8-80,80s35.8,80,80,80s80-35.8,80-80h-80V144z"/>
	<path class="st0" d="M384,112v80h80C464,147.8,428.2,112,384,112z"/>
</g>
<path class="st0" d="M278.6,19.7c-3.6-3-8.5-4.4-13.2-3.4l-256,48C1.8,65.7-3.7,72.3-3.7,80v352c0,7.7,5.5,14.3,13.1,15.7l256,48
	c1,0.2,2,0.3,2.9,0.3c3.7,0,7.3-1.3,10.2-3.7c3.7-3,5.8-7.6,5.8-12.3V32C284.3,27.2,282.2,22.7,278.6,19.7z"/>
<path d="M112,368c-8.8,0-16-7.2-16-16V192c0-8.8,7.2-16,16-16h48c35.3,0,64,28.7,64,64s-28.7,64-64,64h-32v48
	C128,360.8,120.8,368,112,368z M128,272h32c17.6,0,32-14.4,32-32s-14.4-32-32-32h-32V272z"/>
</svg>
