<?xml version="1.0" encoding="utf-8"?>
<!-- Generator: Adobe Illustrator 24.3.0, SVG Export Plug-In . SVG Version: 6.00 Build 0)  -->
<svg version="1.1" id="Capa_1" xmlns="http://www.w3.org/2000/svg" xmlns:xlink="http://www.w3.org/1999/xlink" x="0px" y="0px"
	 viewBox="0 0 512 512" style="enable-background:new 0 0 512 512;" xml:space="preserve">
<style type="text/css">
	.st0{fill:#60A5FA;}
</style>
<g id="Layer_2_00000080914336643268906040000013680685670080058297_">
	<g id="Surfaces_00000068635135053254290230000014452915921741667200_">
		<g id="Video_Audio_Surface">
			<g id="Outline_no_shadow_00000182512826952423199550000010114509087919609763_">
				<path class="st0" d="M234.6,192.4c3.4,5.8,5.1,12.4,4.9,19c0,9.4-2.1,16.6-6.6,22c-4.7,5.3-10.7,9.4-17.5,11.3
					c-7.9,2.6-16.2,3.8-24.5,3.8h-11.3c-2.6,0-5.3-0.2-8.3-0.4v-71.7c1.5-0.2,4.5-0.4,8.7-0.2c4-0.2,9-0.2,14.5-0.2
					c8.7-0.2,17.3,1.1,25.2,4.3C225.8,182.6,230.9,186.9,234.6,192.4z"/>
				<path class="st0" d="M424.4,7H93.8C43.6,7,3.1,47.5,3.1,97.7v317.9c0,50.1,40.5,90.7,90.7,90.7h330.7
					c50.1,0,90.7-40.5,90.7-90.7V97.7C515.1,47.5,474.5,7,424.4,7z M273.2,255.5c-19,26.6-51.5,33.3-82.3,33.3
					c-5.1,0-8.5,0-10.7-0.2c-2.1-0.2-5.1-0.2-9.2-0.2v68.5c0.2,1.5-0.8,2.8-2.3,3h-41.4c-1.7,0-2.6-0.9-2.6-2.8V137.6
					c0-1.5,0.6-2.3,2.1-2.3c3.6,0,7,0,11.9-0.2l54.2-1.1c17.5,0,32,2.1,43.9,6.6c20,7.5,36.6,21.5,44.2,41.8
					C289.6,205.4,287.7,235.3,273.2,255.5z M418.7,229.9c0,1.7-1.1,2.3-3.4,2.3c-7.7-0.2-15.6,0.4-23,2.1
					c-6.2,1.3-12.2,3.2-17.9,5.8c-4,1.9-7.9,4.5-10.9,7.9v108.8c0,2.1-0.8,3-2.8,3h-42c-1.7,0.2-3.2-0.9-3.4-2.6v-119
					c0-5.1,0-10.4-0.2-16c-0.2-5.5-0.2-11.1-0.4-16.6c0-4.9-0.4-9.6-0.9-14.5c-0.2-1.1,0.4-2.1,1.5-2.3c0-0.2,0.4-0.2,0.6,0h37.3
					c2.1,0,3.8,1.5,4.5,3.4c0.6,1.7,1.1,3.4,1.3,5.3c0.4,2.1,0.9,4.5,1.1,6.6c0.2,2.3,0.4,4.9,0.4,7.7c6.4-7.5,14.1-13.6,22.8-18.3
					c9.8-5.5,21.1-8.3,32.4-8.3c1.5-0.2,2.8,0.8,3,2.3L418.7,229.9L418.7,229.9z"/>
			</g>
		</g>
	</g>
</g>
</svg>
