<?xml version="1.0" encoding="utf-8"?>
<!-- Generator: Adobe Illustrator 24.3.0, SVG Export Plug-In . SVG Version: 6.00 Build 0)  -->
<svg version="1.1" id="Capa_1" xmlns="http://www.w3.org/2000/svg" xmlns:xlink="http://www.w3.org/1999/xlink" x="0px" y="0px"
	 viewBox="0 0 512 512" style="enable-background:new 0 0 512 512;" xml:space="preserve">
<style type="text/css">
	.st0{fill:#60A5FA;}
</style>
<path d="M496,432H272c-8.8,0-16-7.1-16-16s0-311.2,0-320s7.2-16,16-16h224c8.8,0,16,7.2,16,16v320C512,424.9,504.8,432,496,432z"/>
<g>
	<path class="st0" d="M432,176H272c-8.8,0-16-7.1-16-16s7.2-16,16-16h160c8.8,0,16,7.2,16,16S440.8,176,432,176z"/>
	<path class="st0" d="M432,240H272c-8.8,0-16-7.1-16-16s7.2-16,16-16h160c8.8,0,16,7.2,16,16S440.8,240,432,240z"/>
	<path class="st0" d="M432,304H272c-8.8,0-16-7.1-16-16s7.2-16,16-16h160c8.8,0,16,7.2,16,16S440.8,304,432,304z"/>
	<path class="st0" d="M432,368H272c-8.8,0-16-7.1-16-16s7.2-16,16-16h160c8.8,0,16,7.2,16,16S440.8,368,432,368z"/>
</g>
<path class="st0" d="M282.2,19.7c-3.6-3.1-8.5-4.4-13.2-3.4l-256,48C5.5,65.7,0,72.3,0,80v352c0,7.7,5.5,14.3,13.1,15.7l256,48
	c1,0.2,2,0.3,2.9,0.3c3.7,0,7.3-1.3,10.2-3.7c3.7-3,5.8-7.6,5.8-12.3V32C288,27.2,285.9,22.8,282.2,19.7z"/>
<path d="M207.9,337.8c-0.8,7.3-6.6,13.2-13.9,14.1c-0.7,0.1-1.3,0.1-2,0.1c-6.6,0-12.6-4.1-15-10.4l-33-88.1l-33,88.1
	c-2.6,6.8-9.3,11-16.7,10.3c-7.3-0.8-13.1-6.4-14.1-13.7l-16-112c-1.2-8.7,4.8-16.8,13.6-18.1c8.8-1.3,16.9,4.8,18.1,13.6l7.1,50
	l26-69.4c4.7-12.5,25.3-12.5,30,0l24.5,65.3l8.6-77.5c1-8.8,9.1-15.1,17.7-14.1c8.8,1,15.1,8.9,14.1,17.7L207.9,337.8z"/>
</svg>
