<svg id="SvgjsSvg1036" width="288" height="288" xmlns="http://www.w3.org/2000/svg" version="1.1" xmlns:xlink="http://www.w3.org/1999/xlink" xmlns:svgjs="http://svgjs.com/svgjs"><defs id="SvgjsDefs1037"></defs><g id="SvgjsG1038" transform="matrix(1,0,0,1,0,0)"><svg xmlns="http://www.w3.org/2000/svg" enable-background="new 0 0 66 66" viewBox="0 0 66 66" width="288" height="288"><path fill="#000000" stroke="#4ade80" stroke-linecap="round" stroke-linejoin="round" stroke-miterlimit="10" stroke-width="1.5" d="M22.6,47.4v0.1c0,1.8-1.5,3.2-3.2,3.2H5c-1.8,0-3.3-1.5-3.3-3.3v-0.1c0-4.2,2.5-6.7,6.1-7.7
					c0.9,1.5,2.5,2.5,4.3,2.5c1.8,0,3.4-1,4.3-2.5C20.1,40.8,22.6,43.2,22.6,47.4z" class="svgShape colorabb734-0 svgStroke colorStroke682f2a-0 selectable"></path><path fill="#000000" stroke="#4ade80" stroke-linecap="round" stroke-linejoin="round" stroke-miterlimit="10" stroke-width="1.5" d="M17.3,32.9c0,2.8-2.3,5.1-5.1,5.1C9.3,38,7,35.7,7,32.9c0-2.8,2.3-5.1,5.1-5.1C15,27.8,17.3,30.1,17.3,32.9
					z" class="svgShape colorff8c83-1 svgStroke colorStroke682f2a-1 selectable"></path><path fill="#000000" stroke="#4ade80" stroke-linecap="round" stroke-linejoin="round" stroke-miterlimit="10" stroke-width="1.5" d="M64.2,47.4v0.1c0,1.8-1.5,3.2-3.2,3.2H46.7c-1.8,0-3.3-1.5-3.3-3.3v-0.1c0-4.2,2.5-6.7,6.1-7.7
					c0.9,1.5,2.5,2.5,4.3,2.5s3.4-1,4.3-2.5C61.8,40.8,64.2,43.2,64.2,47.4z" class="svgShape colorffb95c-2 svgStroke colorStroke682f2a-2 selectable"></path><path fill="#000000" stroke="#4ade80" stroke-linecap="round" stroke-linejoin="round" stroke-miterlimit="10" stroke-width="1.5" d="M59,32.9c0,2.8-2.3,5.1-5.1,5.1c-2.8,0-5.1-2.3-5.1-5.1c0-2.8,2.3-5.1,5.1-5.1C56.7,27.8,59,30.1,59,32.9z" class="svgShape colorff8c83-3 svgStroke colorStroke682f2a-3 selectable"></path><path fill="#000000" stroke="#4ade80" stroke-linecap="round" stroke-linejoin="round" stroke-miterlimit="10" stroke-width="1.5" d="M45.1,60.3v0.2c0,2.1-1.7,3.8-3.8,3.8H24.7c-2.1,0-3.8-1.7-3.8-3.8v-0.1c0-4.9,2.9-7.7,7.1-8.9
				c1,1.7,2.9,2.9,5,2.9s4-1.1,5-2.9C42.2,52.5,45.1,55.4,45.1,60.3z" class="svgShape color559aff-4 svgStroke colorStroke682f2a-4 selectable"></path><g opacity=".4"><path fill="none" stroke="#000000" stroke-linecap="round" stroke-linejoin="round" stroke-miterlimit="10" stroke-width="1.5" d="M26.4,55.3c-1.3,0.8-2.1,2.1-2.4,3.6c-0.1,0.4-0.1,0.7-0.1,1.1c0,0.2,0,0.4,0,0.6c0,0.2,0.1,0.3,0.3,0.5
							c0.3,0.3,0.7,0.2,1.1,0.2h1.1" class="svgStroke colorStrokeffffff-6 selectable"></path><line x1="30.6" x2="32.3" y1="61.2" y2="61.2" fill="none" stroke="#000000" stroke-linecap="round" stroke-linejoin="round" stroke-miterlimit="10" stroke-width="1.5" class="svgStroke colorStrokeffffff-7 selectable"></line></g><path fill="#000000" stroke="#4ade80" stroke-linecap="round" stroke-linejoin="round" stroke-miterlimit="10" stroke-width="1.5" d="M39,43.4c0,3.3-2.7,6-6,6s-6-2.7-6-6c0-3.3,2.7-6,6-6S39,40.1,39,43.4z" class="svgShape colorff8c83-8 svgStroke colorStroke682f2a-8 selectable"></path><g><path fill="#000000" stroke="#4ade80" stroke-linecap="round" stroke-linejoin="round" stroke-miterlimit="10" stroke-width="1.5" d="M23.2,16.4c0.6,6.2,5.6,11.2,11.8,11.9c2.9,0.3,5.7-0.3,8-1.6c0.5-0.3,1-0.3,1.5-0.2l2.1,0.4
				c1.6,0.3,3-1.1,2.7-2.7l-0.5-2.8c-0.1-0.4,0-0.9,0.2-1.3c0.7-1.8,1.1-3.8,0.9-5.9c-0.5-7-6.6-12.5-13.6-12.3
				C28.5,1.9,22.4,8.6,23.2,16.4z" class="svgShape colorfecd04-10 svgStroke colorStroke682f2a-10 selectable"></path><path fill="#000000" stroke="#4ade80" stroke-linecap="round" stroke-linejoin="round" stroke-miterlimit="10" stroke-width="1.5" d="M42.8,16.4c-0.6,6.2-5.6,11.2-11.8,11.9c-2.9,0.3-5.7-0.3-8-1.6c-0.5-0.3-1-0.3-1.5-0.2l-2.1,0.4
			c-1.6,0.3-3-1.1-2.7-2.7l0.5-2.8c0.1-0.4,0-0.9-0.2-1.3c-0.7-1.8-1.1-3.8-0.9-5.9c0.5-7,6.6-12.5,13.6-12.3
			C37.5,1.9,43.6,8.6,42.8,16.4z" class="svgShape colorfa4968-11 svgStroke colorStroke682f2a-11 selectable"></path><path fill="none" stroke="#000000" stroke-linecap="round" stroke-linejoin="round" stroke-miterlimit="10" stroke-width="1.5" d="M37.3 8.4c-2.1-2.5-5.5-3.9-8.8-3.5M24.2 6.4c-.5.3-1 .7-1.5 1.2" opacity=".4" class="svgStroke colorStrokeffffff-12 selectable"></path><path fill="#000000" stroke="#4ade80" stroke-linecap="round" stroke-linejoin="round" stroke-miterlimit="10" stroke-width="1.5" d="M24.2 15.1c0-1.3-1.1-2.4-2.4-2.4-1.3 0-2.4 1.1-2.4 2.4 0 1.3 1.1 2.4 2.4 2.4C23.1 17.5 24.2 16.4 24.2 15.1zM31.9 15.1c0-1.3-1.1-2.4-2.4-2.4s-2.4 1.1-2.4 2.4c0 1.3 1.1 2.4 2.4 2.4S31.9 16.4 31.9 15.1zM39.7 15.1c0-1.3-1.1-2.4-2.4-2.4-1.3 0-2.4 1.1-2.4 2.4 0 1.3 1.1 2.4 2.4 2.4C38.6 17.5 39.7 16.4 39.7 15.1z" class="svgShape colore5e5e5-13 svgStroke colorStroke682f2a-13 selectable"></path></g></svg></g></svg>