<svg id="SvgjsSvg1069" width="288" height="288" xmlns="http://www.w3.org/2000/svg" version="1.1" xmlns:xlink="http://www.w3.org/1999/xlink" xmlns:svgjs="http://svgjs.com/svgjs"><defs id="SvgjsDefs1070"></defs><g id="SvgjsG1071"><svg xmlns="http://www.w3.org/2000/svg" enable-background="new 0 0 48 48" viewBox="0 0 48 48" width="288" height="288"><rect width="9.4" height="2" x="19.3" y="45" fill="#4ade80" class="svgShape color000000-0 selectable"></rect><path d="M34.1,9C30.9,6,26.6,4.7,22.3,5.2C15.3,6,9.7,11.5,8.9,18.5c-0.6,5,1.3,10,5.2,13.3c1.2,1.1,2,2.5,2.3,4l0,0
		c0.1,0.4,0.1,0.8,0.1,1.1V38v2v1.2c0,1.2,1,2.2,2.2,2.2h10.7c1.2,0,2.2-1,2.2-2.2V40v-2v-1.1c0-0.3,0-0.7,0.1-1.1l0,0
		c0.3-1.5,1.1-3,2.4-4c3.3-2.9,5.2-7.1,5.2-11.4C39.2,16,37.3,11.8,34.1,9z M29.5,41.2c0,0.1-0.1,0.2-0.2,0.2H18.7
		c-0.1,0-0.2-0.1-0.2-0.2V40h11V41.2z M18.5,38v-1.1c0-0.1,0-0.2,0-0.3h11c0,0.1,0,0.2,0,0.3V38H18.5z M32.6,30.2
		c-1.4,1.2-2.3,2.7-2.8,4.4H25V23l5.2-5.2l-1.4-1.4L24,21.2l-4.8-4.8l-1.4,1.4L23,23v11.6h-4.8c-0.5-1.7-1.4-3.2-2.8-4.3
		c-3.3-2.9-5-7.2-4.5-11.6c0.7-6,5.6-10.8,11.6-11.5c3.8-0.4,7.5,0.7,10.3,3.3c2.8,2.5,4.4,6.1,4.4,9.8
		C37.2,24.1,35.5,27.7,32.6,30.2z" fill="#4ade80" class="svgShape color000000-1 selectable"></path><rect width="2" height="2.1" x="23" y="1" fill="#4ade80" class="svgShape color000000-2 selectable"></rect><rect width="2.1" height="2" x="41.2" y="19.3" fill="#4ade80" class="svgShape color000000-3 selectable"></rect><rect width="2.1" height="2" x="4.7" y="19.3" fill="#4ade80" class="svgShape color000000-4 selectable"></rect><rect width="2.1" height="2" x="35.9" y="6.4" transform="rotate(-45.009 36.899 7.376)" fill="#4ade80" class="svgShape color000000-5 selectable"></rect><rect width="2.1" height="2" x="10.1" y="32.2" transform="rotate(-45.001 11.102 33.171)" fill="#4ade80" class="svgShape color000000-6 selectable"></rect><rect width="2" height="2.1" x="35.9" y="32.1" transform="rotate(-45.009 36.899 33.172)" fill="#4ade80" class="svgShape color000000-7 selectable"></rect><rect width="2" height="2.1" x="10.1" y="6.3" transform="rotate(-44.992 11.102 7.376)" fill="#4ade80" class="svgShape color000000-8 selectable"></rect><rect width="2.1" height="2" x="30" y="2.5" transform="rotate(-67.189 31.073 3.46)" fill="#4ade80" class="svgShape color000000-9 selectable"></rect><rect width="2" height="2.1" x="39.8" y="26.3" transform="rotate(-67.176 40.814 27.346)" fill="#4ade80" class="svgShape color000000-10 selectable"></rect><rect width="2" height="2.1" x="6.2" y="12.2" transform="rotate(-67.202 7.187 13.2)" fill="#4ade80" class="svgShape color000000-11 selectable"></rect><rect width="2.1" height="2" x="39.9" y="12.4" transform="rotate(-22.18 40.888 13.387)" fill="#4ade80" class="svgShape color000000-12 selectable"></rect><rect width="2.1" height="2" x="6.1" y="26.2" transform="rotate(-22.18 7.11 27.163)" fill="#4ade80" class="svgShape color000000-13 selectable"></rect><rect width="2" height="2.1" x="16.1" y="2.3" transform="rotate(-22.18 17.112 3.383)" fill="#4ade80" class="svgShape color000000-14 selectable"></rect></svg></g></svg>