<svg xmlns="http://www.w3.org/2000/svg" version="1.1" xmlns:xlink="http://www.w3.org/1999/xlink" width="512" height="512" x="0" y="0" viewBox="0 0 64 64" style="enable-background:new 0 0 512 512" xml:space="preserve" class=""><g><path d="m19.21 13.96-3.38 3.38-1.04-1.04a.996.996 0 1 0-1.41 1.41l1.75 1.75c.2.2.45.29.71.29s.51-.1.71-.29l4.08-4.08a.996.996 0 1 0-1.41-1.41z" fill="#4ade80" opacity="1" data-original="#000000" class=""></path><path d="m29.81 23.99-1.63-1.62c.2-.41.38-.83.53-1.26H31c.55 0 1-.45 1-1v-6.22c0-.55-.45-1-1-1h-2.29c-.15-.43-.33-.85-.53-1.26l1.63-1.62c.18-.19.29-.44.29-.71s-.11-.52-.29-.71l-4.4-4.4c-.38-.37-1.04-.37-1.42 0l-1.62 1.63c-.41-.2-.83-.38-1.26-.53V3c0-.55-.45-1-1-1h-6.22c-.55 0-1 .45-1 1v2.29c-.43.15-.85.33-1.26.53l-1.62-1.63c-.19-.18-.44-.29-.71-.29s-.52.11-.71.29l-4.4 4.4c-.18.19-.29.45-.29.71s.11.52.29.71l1.63 1.62c-.2.41-.38.83-.53 1.26H3c-.55 0-1 .45-1 1v6.22c0 .55.45 1 1 1h2.29c.15.43.33.85.53 1.26l-1.63 1.62c-.18.19-.29.44-.29.71s.11.52.29.71l4.4 4.4c.38.37 1.04.37 1.42 0l1.62-1.63c.41.2.83.38 1.26.53V31c0 .55.45 1 1 1h6.22c.55 0 1-.45 1-1v-2.29c.43-.15.85-.33 1.26-.53l1.62 1.63c.19.18.44.29.71.29s.52-.11.71-.29l4.4-4.4c.18-.19.29-.45.29-.71s-.11-.52-.29-.71zM17 25c-4.41 0-8-3.59-8-8s3.59-8 8-8 8 3.59 8 8-3.59 8-8 8zM45.2 56H32V31h22v14c0 .55.45 1 1 1s1-.45 1-1V30c0-.55-.45-1-1-1H31c-.55 0-1 .45-1 1v27c0 .55.45 1 1 1h14.2c.55 0 1-.45 1-1s-.45-1-1-1z" fill="#4ade80" opacity="1" data-original="#000000" class=""></path><path d="M55 48c-3.86 0-7 3.14-7 7s3.14 7 7 7 7-3.14 7-7-3.14-7-7-7zm3.28 5.99-3.43 3.43c-.2.2-.45.29-.71.29s-.51-.09-.7-.29l-1.72-1.71c-.39-.39-.39-1.03 0-1.42s1.03-.39 1.42 0l1 1.01 2.72-2.72c.39-.39 1.03-.39 1.42 0s.39 1.02 0 1.41zM50 35H36c-.55 0-1 .45-1 1s.45 1 1 1h14c.55 0 1-.45 1-1s-.45-1-1-1zM50 40H36c-.55 0-1 .45-1 1s.45 1 1 1h14c.55 0 1-.45 1-1s-.45-1-1-1zM51 46c0-.55-.45-1-1-1H36c-.55 0-1 .45-1 1s.45 1 1 1h14c.55 0 1-.45 1-1zM36 50c-.55 0-1 .45-1 1s.45 1 1 1h8c.55 0 1-.45 1-1s-.45-1-1-1zM36 12h16v13c0 .55.45 1 1 1s1-.45 1-1V11c0-.55-.45-1-1-1H36c-.55 0-1 .45-1 1s.45 1 1 1zM25 52H12V36c0-.55-.45-1-1-1s-1 .45-1 1v17c0 .55.45 1 1 1h14c.55 0 1-.45 1-1s-.45-1-1-1z" fill="#4ade80" opacity="1" data-original="#000000" class=""></path></g></svg>