<svg xmlns="http://www.w3.org/2000/svg" version="1.1" xmlns:xlink="http://www.w3.org/1999/xlink" width="512" height="512" x="0" y="0" viewBox="0 0 512.004 512.004" style="enable-background:new 0 0 512 512" xml:space="preserve" class=""><g><path d="M97.271 286.175c0 8.679 7.036 15.715 15.715 15.715h20.558v-10.872c0-11.354-9.204-20.558-20.558-20.558-8.679 0-15.715 7.036-15.715 15.715zM185.532 270.46c-11.354 0-20.558 9.204-20.558 20.558v10.872h20.558c8.679 0 15.715-7.036 15.715-15.715-.001-8.679-7.036-15.715-15.715-15.715zM72.345 436.684v67.82h154.39v-90.64" style="stroke-width:15;stroke-miterlimit:10;" fill="none" stroke="#4ade80" stroke-width="15" stroke-miterlimit="10" data-original="#000000" opacity="1" class=""></path><path d="M240.86 224.523V213.95c0-11.572-9.381-20.953-20.953-20.953s-20.953 9.381-20.953 20.953v10.573h-51.156v-53.094h-10.369c-11.572 0-20.953-9.381-20.953-20.953s9.381-20.953 20.953-20.953h10.369V64.504C70.173 65.584 7.27 129.726 7.63 207.357c1.096 84.834 64.528 94.319 64.715 206.506h154.392c0-44.559 14.85-89.817 40.172-126.481a141.358 141.358 0 0 0 23.981-62.859h-50.03zM164.974 413.864V301.89M133.544 413.864V301.89M403.625 131.204c-10.75-70.7-72.27-124.72-146.21-123.69v66.67h-10.63c-19.104-.06-28.618 23.431-15.2 36.68 3.89 3.89 9.27 6.29 15.2 6.29h10.63v54.45h52.46v-10.84c-.054-19.122 23.414-28.606 36.68-15.2 3.88 3.89 6.29 9.26 6.29 15.2v10.84h34.67" style="stroke-width:15;stroke-miterlimit:10;" fill="none" stroke="#4ade80" stroke-width="15" stroke-miterlimit="10" data-original="#000000" opacity="1" class=""></path><path d="m383.286 76.258 78.569 30.016 42 109.73-38 101v54" style="stroke-width:15;stroke-miterlimit:10;" fill="none" stroke="#4ade80" stroke-width="15" stroke-miterlimit="10" data-original="#000000" opacity="1" class=""></path><path d="M438.855 247.214v-92.186c0-14.177-11.493-25.67-25.67-25.67-14.177 0-25.67 11.493-25.67 25.67v58.976c-35.441 22.991-48.728 68.452-31.247 106.91l9.586 21.09v29M485.855 512.004v-30.5M345.855 512.004v-141h140v95.5M291.968 89.552h15M321.968 89.552h15" style="stroke-width:15;stroke-miterlimit:10;" fill="none" stroke="#4ade80" stroke-width="15" stroke-miterlimit="10" data-original="#000000" opacity="1" class=""></path></g></svg>