<svg xmlns="http://www.w3.org/2000/svg" version="1.1" xmlns:xlink="http://www.w3.org/1999/xlink" width="512" height="512" x="0" y="0" viewBox="0 0 64 64" style="enable-background:new 0 0 512 512" xml:space="preserve" class=""><g><path fill="#4ade80" d="M43 62H21c-1.65 0-3-1.35-3-3 0-6.07 4.93-11 11-11h6c6.07 0 11 4.93 11 11 0 1.65-1.35 3-3 3zM29 50c-4.96 0-9 4.04-9 9 0 .55.45 1 1 1h22c.55 0 1-.45 1-1 0-4.96-4.04-9-9-9zM32 46c-4.41 0-8-3.59-8-8s3.59-8 8-8 8 3.59 8 8-3.59 8-8 8zm0-14c-3.31 0-6 2.69-6 6s2.69 6 6 6 6-2.69 6-6-2.69-6-6-6z" opacity="1" data-original="#2f4c73" class=""></path><g fill="#32a9d9"><path d="M15.14 58H5c-1.65 0-3-1.35-3-3 0-2.4.93-4.66 2.63-6.36A8.983 8.983 0 0 1 11 46h6c1.4 0 2.78.33 4.01.95a.998.998 0 0 1-.9 1.78C19.15 48.24 18.1 48 17 48h-6c-1.86 0-3.62.73-4.96 2.05A6.984 6.984 0 0 0 4 55c0 .55.45 1 1 1h10.14c.55 0 1 .45 1 1s-.45 1-1 1zM14 44c-3.86 0-7-3.14-7-7s3.14-7 7-7 7 3.14 7 7-3.14 7-7 7zm0-12c-2.76 0-5 2.24-5 5s2.24 5 5 5 5-2.24 5-5-2.24-5-5-5zM59 58H48.86c-.55 0-1-.45-1-1s.45-1 1-1H59c.27 0 .51-.1.69-.29.2-.2.31-.44.31-.71 0-3.86-3.14-7-7-7h-6c-1.1 0-2.15.25-3.11.73a.998.998 0 0 1-.9-1.78c1.25-.63 2.59-.95 4.01-.95h6c4.96 0 9 4.04 9 9 0 .81-.32 1.57-.89 2.13-.54.56-1.3.87-2.11.87zM50 44c-3.86 0-7-3.14-7-7s3.14-7 7-7 7 3.14 7 7-3.14 7-7 7zm0-12c-2.76 0-5 2.24-5 5s2.24 5 5 5 5-2.24 5-5-2.24-5-5-5z" fill="#4ade80" opacity="1" data-original="#32a9d9" class=""></path></g><path fill="#4ade80" d="M32 28c-7.17 0-13-5.83-13-13S24.83 2 32 2s13 5.83 13 13-5.83 13-13 13zm0-24c-6.07 0-11 4.93-11 11s4.93 11 11 11 11-4.93 11-11S38.07 4 32 4z" opacity="1" data-original="#2f4c73" class=""></path><path fill="#4ade80" d="M30 19.5c-.26 0-.51-.1-.71-.29l-3-3a.996.996 0 1 1 1.41-1.41l2.29 2.29 6.29-6.29a.996.996 0 1 1 1.41 1.41l-7 7c-.2.2-.45.29-.71.29z" opacity="1" data-original="#32a9d9" class=""></path></g></svg>